<svg width="16" height="16" viewBox="0 0 16 16" fill="none" xmlns="http://www.w3.org/2000/svg">
<path d="M7.95147 0.656323C7.86269 0.654049 7.78088 0.705114 7.74259 0.786714L5.52049 5.52425L0.409547 6.21249C0.323531 6.22409 0.251706 6.28498 0.224896 6.36901C0.198086 6.45305 0.22106 6.5453 0.283958 6.60617L4.02156 10.2223L3.08492 15.3852C3.06918 15.4721 3.10384 15.5605 3.17402 15.6124C3.24421 15.6644 3.33745 15.6706 3.41373 15.6285L7.94581 13.1259L12.4779 15.6285C12.5542 15.6706 12.6474 15.6644 12.7176 15.6124C12.7878 15.5605 12.8224 15.4721 12.8067 15.3852L11.8701 10.2223L15.6077 6.60617C15.6706 6.54529 15.6936 6.45303 15.6668 6.36899C15.6399 6.28495 15.5681 6.22407 15.4821 6.21249L10.3711 5.52425L8.14903 0.786714C8.11249 0.708873 8.03616 0.658492 7.95147 0.656323Z" fill="#FF8970"/>
</svg>
